<svg xmlns="http://www.w3.org/2000/svg" xmlns:xlink="http://www.w3.org/1999/xlink" version="1.1" width="256" height="256" viewBox="0 0 256 256" xml:space="preserve">

<defs>
</defs>
<g style="stroke: none; stroke-width: 0; stroke-dasharray: none; stroke-linecap: butt; stroke-linejoin: miter; stroke-miterlimit: 10; fill: none; fill-rule: nonzero; opacity: 1;" transform="translate(1.4065934065934016 1.4065934065934016) scale(2.81 2.81)" >
	<path d="M 75.531 15.12 V 4.335 C 75.531 2.493 74.038 1 72.196 1 H 4.837 C 2.995 1 1.502 2.493 1.502 4.335 v 81.331 C 1.502 87.507 2.995 89 4.837 89 H 82.71 l -0.055 -0.101 c 3.313 -0.546 5.843 -3.416 5.843 -6.883 V 18.454 c 0 -1.842 -1.493 -3.335 -3.335 -3.335 H 75.531" style="stroke: none; stroke-width: 1; stroke-dasharray: none; stroke-linecap: butt; stroke-linejoin: miter; stroke-miterlimit: 10; fill: rgb(229,228,209); fill-rule: nonzero; opacity: 1;" transform=" matrix(1 0 0 1 0 0) " stroke-linecap="round" />
	<rect x="10.01" y="27.22" rx="0" ry="0" width="29.01" height="23.93" style="stroke: none; stroke-width: 1; stroke-dasharray: none; stroke-linecap: butt; stroke-linejoin: miter; stroke-miterlimit: 10; fill: rgb(249,187,75); fill-rule: nonzero; opacity: 1;" transform=" matrix(1 0 0 1 0 0) "/>
	<path d="M 77.963 80.431 L 77.963 80.431 c 1.343 0 2.432 -1.089 2.432 -2.432 V 15.12 h -4.864 v 62.88 C 75.531 79.343 76.62 80.431 77.963 80.431 z" style="stroke: none; stroke-width: 1; stroke-dasharray: none; stroke-linecap: butt; stroke-linejoin: miter; stroke-miterlimit: 10; fill: rgb(186,184,162); fill-rule: nonzero; opacity: 1;" transform=" matrix(1 0 0 1 0 0) " stroke-linecap="round" />
	<path d="M 82.71 90 H 4.836 c -2.39 0 -4.334 -1.944 -4.334 -4.335 V 4.334 C 0.502 1.944 2.446 0 4.836 0 h 67.36 c 2.391 0 4.335 1.944 4.335 4.334 v 71.428 c 0 0.553 -0.447 1 -1 1 s -1 -0.447 -1 -1 V 4.334 C 74.531 3.047 73.483 2 72.196 2 H 4.836 C 3.549 2 2.502 3.047 2.502 4.334 v 81.331 C 2.502 86.952 3.549 88 4.836 88 H 82.71 c 0.553 0 1 0.447 1 1 S 83.263 90 82.71 90 z" style="stroke: none; stroke-width: 1; stroke-dasharray: none; stroke-linecap: butt; stroke-linejoin: miter; stroke-miterlimit: 10; fill: rgb(0,0,0); fill-rule: nonzero; opacity: 1;" transform=" matrix(1 0 0 1 0 0) " stroke-linecap="round" />
	<path d="M 81.514 90 c -0.553 0 -1 -0.447 -1 -1 s 0.447 -1 1 -1 c 3.3 0 5.984 -2.685 5.984 -5.984 V 18.454 c 0 -1.287 -1.048 -2.334 -2.335 -2.334 h -9.632 c -0.553 0 -1 -0.448 -1 -1 s 0.447 -1 1 -1 h 9.632 c 2.391 0 4.335 1.944 4.335 4.334 v 63.562 C 89.498 86.418 85.916 90 81.514 90 z" style="stroke: none; stroke-width: 1; stroke-dasharray: none; stroke-linecap: butt; stroke-linejoin: miter; stroke-miterlimit: 10; fill: rgb(0,0,0); fill-rule: nonzero; opacity: 1;" transform=" matrix(1 0 0 1 0 0) " stroke-linecap="round" />
	<path d="M 79.02 82.811 c -0.17 0 -0.343 -0.043 -0.5 -0.135 c -2.46 -1.425 -3.988 -4.073 -3.988 -6.913 c 0 -0.553 0.447 -1 1 -1 s 1 0.447 1 1 c 0 2.129 1.146 4.114 2.99 5.183 c 0.479 0.276 0.642 0.889 0.364 1.366 C 79.7 82.632 79.364 82.811 79.02 82.811 z" style="stroke: none; stroke-width: 1; stroke-dasharray: none; stroke-linecap: butt; stroke-linejoin: miter; stroke-miterlimit: 10; fill: rgb(0,0,0); fill-rule: nonzero; opacity: 1;" transform=" matrix(1 0 0 1 0 0) " stroke-linecap="round" />
	<path d="M 39.019 52.146 H 10.011 c -0.552 0 -1 -0.447 -1 -1 V 27.218 c 0 -0.552 0.448 -1 1 -1 h 29.008 c 0.552 0 1 0.448 1 1 v 23.928 C 40.019 51.699 39.571 52.146 39.019 52.146 z M 11.011 50.146 h 27.008 V 28.218 H 11.011 V 50.146 z" style="stroke: none; stroke-width: 1; stroke-dasharray: none; stroke-linecap: butt; stroke-linejoin: miter; stroke-miterlimit: 10; fill: rgb(0,0,0); fill-rule: nonzero; opacity: 1;" transform=" matrix(1 0 0 1 0 0) " stroke-linecap="round" />
	<path d="M 66.808 28.218 H 48.18 c -0.553 0 -1 -0.448 -1 -1 s 0.447 -1 1 -1 h 18.628 c 0.553 0 1 0.448 1 1 S 67.36 28.218 66.808 28.218 z" style="stroke: none; stroke-width: 1; stroke-dasharray: none; stroke-linecap: butt; stroke-linejoin: miter; stroke-miterlimit: 10; fill: rgb(0,0,0); fill-rule: nonzero; opacity: 1;" transform=" matrix(1 0 0 1 0 0) " stroke-linecap="round" />
	<path d="M 66.808 40.182 H 48.18 c -0.553 0 -1 -0.448 -1 -1 s 0.447 -1 1 -1 h 18.628 c 0.553 0 1 0.448 1 1 S 67.36 40.182 66.808 40.182 z" style="stroke: none; stroke-width: 1; stroke-dasharray: none; stroke-linecap: butt; stroke-linejoin: miter; stroke-miterlimit: 10; fill: rgb(0,0,0); fill-rule: nonzero; opacity: 1;" transform=" matrix(1 0 0 1 0 0) " stroke-linecap="round" />
	<path d="M 66.808 52.146 H 48.18 c -0.553 0 -1 -0.447 -1 -1 s 0.447 -1 1 -1 h 18.628 c 0.553 0 1 0.447 1 1 S 67.36 52.146 66.808 52.146 z" style="stroke: none; stroke-width: 1; stroke-dasharray: none; stroke-linecap: butt; stroke-linejoin: miter; stroke-miterlimit: 10; fill: rgb(0,0,0); fill-rule: nonzero; opacity: 1;" transform=" matrix(1 0 0 1 0 0) " stroke-linecap="round" />
	<path d="M 66.808 64.111 H 10.011 c -0.552 0 -1 -0.447 -1 -1 s 0.448 -1 1 -1 h 56.797 c 0.553 0 1 0.447 1 1 S 67.36 64.111 66.808 64.111 z" style="stroke: none; stroke-width: 1; stroke-dasharray: none; stroke-linecap: butt; stroke-linejoin: miter; stroke-miterlimit: 10; fill: rgb(0,0,0); fill-rule: nonzero; opacity: 1;" transform=" matrix(1 0 0 1 0 0) " stroke-linecap="round" />
	<path d="M 66.808 76.075 H 10.011 c -0.552 0 -1 -0.447 -1 -1 s 0.448 -1 1 -1 h 56.797 c 0.553 0 1 0.447 1 1 S 67.36 76.075 66.808 76.075 z" style="stroke: none; stroke-width: 1; stroke-dasharray: none; stroke-linecap: butt; stroke-linejoin: miter; stroke-miterlimit: 10; fill: rgb(0,0,0); fill-rule: nonzero; opacity: 1;" transform=" matrix(1 0 0 1 0 0) " stroke-linecap="round" />
	<path d="M 47.665 15.221 H 10.011 c -0.552 0 -1 -0.448 -1 -1 s 0.448 -1 1 -1 h 37.654 c 0.553 0 1 0.448 1 1 S 48.218 15.221 47.665 15.221 z" style="stroke: none; stroke-width: 1; stroke-dasharray: none; stroke-linecap: butt; stroke-linejoin: miter; stroke-miterlimit: 10; fill: rgb(0,0,0); fill-rule: nonzero; opacity: 1;" transform=" matrix(1 0 0 1 0 0) " stroke-linecap="round" />
	<path d="M 66.808 15.221 h -8.939 c -0.553 0 -1 -0.448 -1 -1 s 0.447 -1 1 -1 h 8.939 c 0.553 0 1 0.448 1 1 S 67.36 15.221 66.808 15.221 z" style="stroke: none; stroke-width: 1; stroke-dasharray: none; stroke-linecap: butt; stroke-linejoin: miter; stroke-miterlimit: 10; fill: rgb(0,0,0); fill-rule: nonzero; opacity: 1;" transform=" matrix(1 0 0 1 0 0) " stroke-linecap="round" />
</g>
</svg>