<svg xmlns="http://www.w3.org/2000/svg" xmlns:xlink="http://www.w3.org/1999/xlink" version="1.1" width="256" height="256" viewBox="0 0 256 256" xml:space="preserve">

<defs>
</defs>
<g style="stroke: none; stroke-width: 0; stroke-dasharray: none; stroke-linecap: butt; stroke-linejoin: miter; stroke-miterlimit: 10; fill: none; fill-rule: nonzero; opacity: 1;" transform="translate(1.4065934065934016 1.4065934065934016) scale(2.81 2.81)" >
	<path d="M 76.595 78.556 H 5.059 C 2.817 78.556 1 76.739 1 74.498 V 23.848 c 0 -2.242 1.817 -4.059 4.059 -4.059 h 71.536 c 2.242 0 4.059 1.817 4.059 4.059 v 50.649 C 80.654 76.739 78.837 78.556 76.595 78.556 z" style="stroke: none; stroke-width: 1; stroke-dasharray: none; stroke-linecap: butt; stroke-linejoin: miter; stroke-miterlimit: 10; fill: rgb(216,236,254); fill-rule: nonzero; opacity: 1;" transform=" matrix(1 0 0 1 0 0) " stroke-linecap="round" />
	<path d="M 80.654 74.498 c 0 2.242 -1.817 4.059 -4.059 4.059 H 5.059 C 2.817 78.556 1 76.739 1 74.498 l 15.049 -17.944 c 2.715 -3.237 7.638 -3.4 10.562 -0.35 l 0.95 0.991 c 2.95 3.077 7.927 2.879 10.622 -0.424 l 7.607 -9.321 c 2.77 -3.394 7.923 -3.493 10.821 -0.208 L 80.654 74.498 z" style="stroke: none; stroke-width: 1; stroke-dasharray: none; stroke-linecap: butt; stroke-linejoin: miter; stroke-miterlimit: 10; fill: rgb(161,231,136); fill-rule: nonzero; opacity: 1;" transform=" matrix(1 0 0 1 0 0) " stroke-linecap="round" />
	<circle cx="31.285" cy="37.565" r="6.285" style="stroke: none; stroke-width: 1; stroke-dasharray: none; stroke-linecap: butt; stroke-linejoin: miter; stroke-miterlimit: 10; fill: rgb(255,216,115); fill-rule: nonzero; opacity: 1;" transform="  matrix(1 0 0 1 0 0) "/>
	<path d="M 76.595 79.557 H 5.059 c -2.79 0 -5.059 -2.27 -5.059 -5.059 v -50.65 c 0 -2.79 2.269 -5.059 5.059 -5.059 h 71.536 c 2.79 0 5.06 2.269 5.06 5.059 v 50.65 C 81.654 77.287 79.385 79.557 76.595 79.557 z M 5.059 20.79 C 3.372 20.79 2 22.162 2 23.848 v 50.65 c 0 1.687 1.372 3.059 3.059 3.059 h 71.536 c 1.688 0 3.06 -1.372 3.06 -3.059 v -50.65 c 0 -1.687 -1.372 -3.059 -3.06 -3.059 H 5.059 z" style="stroke: none; stroke-width: 1; stroke-dasharray: none; stroke-linecap: butt; stroke-linejoin: miter; stroke-miterlimit: 10; fill: rgb(0,0,0); fill-rule: nonzero; opacity: 1;" transform=" matrix(1 0 0 1 0 0) " stroke-linecap="round" />
	<path d="M 76.595 79.557 H 5.059 c -2.79 0 -5.059 -2.27 -5.059 -5.059 c 0 -0.235 0.083 -0.463 0.234 -0.643 l 15.049 -17.944 c 1.477 -1.761 3.64 -2.813 5.937 -2.89 c 2.307 -0.077 4.524 0.831 6.113 2.489 l 0.95 0.992 c 1.208 1.26 2.909 1.936 4.644 1.873 c 1.744 -0.07 3.377 -0.886 4.481 -2.237 l 7.607 -9.32 c 1.507 -1.846 3.737 -2.931 6.119 -2.977 c 2.384 -0.03 4.651 0.953 6.227 2.739 l 24.044 27.256 c 0.161 0.183 0.25 0.418 0.25 0.661 C 81.654 77.287 79.385 79.557 76.595 79.557 z M 2.019 74.839 c 0.17 1.527 1.468 2.718 3.04 2.718 h 71.536 c 1.567 0 2.862 -1.184 3.039 -2.704 L 55.86 47.903 c -1.187 -1.346 -2.938 -2.099 -4.688 -2.062 c -1.794 0.034 -3.474 0.851 -4.607 2.241 l -7.607 9.32 c -1.466 1.797 -3.635 2.879 -5.951 2.972 c -2.314 0.089 -4.564 -0.813 -6.168 -2.487 l -0.95 -0.992 c -1.196 -1.247 -2.875 -1.915 -4.603 -1.874 c -1.729 0.058 -3.359 0.851 -4.471 2.176 L 2.019 74.839 z" style="stroke: none; stroke-width: 1; stroke-dasharray: none; stroke-linecap: butt; stroke-linejoin: miter; stroke-miterlimit: 10; fill: rgb(0,0,0); fill-rule: nonzero; opacity: 1;" transform=" matrix(1 0 0 1 0 0) " stroke-linecap="round" />
	<path d="M 31.282 44.853 c -4.017 0 -7.285 -3.268 -7.285 -7.285 s 3.268 -7.284 7.285 -7.284 s 7.285 3.268 7.285 7.284 S 35.299 44.853 31.282 44.853 z M 31.282 32.284 c -2.914 0 -5.285 2.371 -5.285 5.284 c 0 2.914 2.371 5.285 5.285 5.285 s 5.285 -2.371 5.285 -5.285 C 36.567 34.654 34.196 32.284 31.282 32.284 z" style="stroke: none; stroke-width: 1; stroke-dasharray: none; stroke-linecap: butt; stroke-linejoin: miter; stroke-miterlimit: 10; fill: rgb(0,0,0); fill-rule: nonzero; opacity: 1;" transform=" matrix(1 0 0 1 0 0) " stroke-linecap="round" />
	<path d="M 89 67.151 c -0.553 0 -1 -0.447 -1 -1 V 15.502 c 0 -1.687 -1.372 -3.059 -3.059 -3.059 H 13.405 c -0.552 0 -1 -0.448 -1 -1 s 0.448 -1 1 -1 h 71.537 c 2.789 0 5.059 2.27 5.059 5.059 v 50.649 C 90 66.704 89.553 67.151 89 67.151 z" style="stroke: none; stroke-width: 1; stroke-dasharray: none; stroke-linecap: butt; stroke-linejoin: miter; stroke-miterlimit: 10; fill: rgb(0,0,0); fill-rule: nonzero; opacity: 1;" transform=" matrix(1 0 0 1 0 0) " stroke-linecap="round" />
</g>
</svg>